<?xml version="1.0" standalone="no"?>
<!DOCTYPE svg PUBLIC "-//W3C//DTD SVG 20010904//EN"
 "http://www.w3.org/TR/2001/REC-SVG-20010904/DTD/svg10.dtd">
<svg version="1.0" xmlns="http://www.w3.org/2000/svg"
 width="636.000000pt" height="636.000000pt" viewBox="0 0 636.000000 636.000000"
 preserveAspectRatio="xMidYMid meet">
<metadata>
Created by potrace 1.11, written by Peter Selinger 2001-2013
</metadata>
<g transform="translate(0.000000,636.000000) scale(0.100000,-0.100000)"
fill="#000000" stroke="none">
<path d="M2740 6169 c-1265 -110 -2329 -1013 -2645 -2244 -281 -1096 83 -2268
932 -3003 459 -397 983 -633 1598 -719 182 -25 568 -25 750 0 771 108 1447
478 1926 1053 130 156 289 396 373 563 l27 53 -3 632 c-4 606 -5 634 -25 707
-58 208 -179 335 -363 380 -71 17 -239 17 -310 0 -138 -34 -268 -135 -334
-261 -70 -132 -69 -124 -75 -838 l-6 -644 -28 -24 c-26 -23 -35 -24 -152 -24
-117 0 -126 1 -152 24 l-28 24 0 1372 0 1372 29 25 c28 24 32 24 163 21 128
-3 136 -4 154 -27 18 -22 19 -46 19 -502 0 -263 3 -479 7 -479 3 0 22 18 41
41 47 55 153 134 229 170 135 64 358 94 526 70 248 -35 445 -171 562 -386 l27
-50 -7 75 c-15 183 -92 489 -177 710 -480 1242 -1732 2024 -3058 1909z"/>
</g>
</svg>
